<svg width="35" height="35" viewBox="0 0 35 35" fill="none" xmlns="http://www.w3.org/2000/svg">
<g filter="url(#filter0_d_2_49)">
<rect x="4" y="2" width="27" height="27" rx="8" fill="#F0F0F0"/>
</g>
<rect x="4" y="2" width="27" height="25" rx="8" fill="url(#paint0_linear_2_49)"/>
<g filter="url(#filter1_d_2_49)">
<path fill-rule="evenodd" clip-rule="evenodd" d="M21.8153 15.3329C22.2117 15.4827 22.4766 15.9003 22.3607 16.3079L22.1111 17.1865C21.9892 17.6121 21.7339 17.9864 21.3834 18.2532C21.0329 18.5201 20.6062 18.6652 20.1671 18.6667H12.9115C12.4724 18.6652 12.0456 18.5201 11.6951 18.2532C11.3447 17.9864 11.0893 17.6121 10.9675 17.1865L9.22995 11.0614C9.22722 11.0518 9.22536 11.0418 9.22222 11.0323V11.0323V11.0323C9.21908 11.0228 9.21722 11.0128 9.21449 11.0032L8.76867 9.43135C8.65433 9.02821 8.28624 8.75 7.86721 8.75V8.75C7.63721 8.75 7.41663 8.65781 7.254 8.49372C7.09137 8.32962 7 8.10706 7 7.875C7 7.64294 7.09137 7.42038 7.254 7.25628C7.41663 7.09219 7.63721 7 7.86721 7H8.79223C9.10625 7.0024 9.41122 7.10641 9.66229 7.29674C9.91336 7.48706 10.0973 7.75364 10.187 8.05729L10.5029 9.18615C10.6237 9.61806 11.0174 9.91667 11.4659 9.91667H17.9252C18.2866 9.91667 18.5628 10.2358 18.5628 10.5972V10.5972V10.5972C18.5628 11.1519 18.1524 11.6667 17.5978 11.6667H12.5277C11.8645 11.6667 11.385 12.3004 11.5653 12.9386L12.6296 16.7052C12.6481 16.7662 12.6854 16.8196 12.7361 16.8576C12.7868 16.8957 12.8483 16.9164 12.9115 16.9167H20.1671C20.2303 16.9164 20.2917 16.8957 20.3424 16.8576C20.3931 16.8196 20.4304 16.7662 20.4489 16.7052L20.6938 15.8388C20.8253 15.3731 21.3627 15.1617 21.8153 15.3329V15.3329ZM13.9831 22.1019C14.142 21.8621 14.2267 21.5801 14.2267 21.2917C14.2248 20.9055 14.0719 20.5357 13.8013 20.2626C13.5307 19.9895 13.1641 19.8353 12.7814 19.8333C12.4955 19.8333 12.2161 19.9189 11.9784 20.0791C11.7407 20.2394 11.5555 20.4671 11.4461 20.7336C11.3367 21.0001 11.308 21.2933 11.3638 21.5762C11.4196 21.8591 11.5572 22.1189 11.7594 22.3229C11.9615 22.5268 12.219 22.6657 12.4994 22.722C12.7798 22.7783 13.0704 22.7494 13.3345 22.639C13.5986 22.5286 13.8243 22.3417 13.9831 22.1019ZM19.4942 20.0791C19.7319 19.9189 20.0113 19.8333 20.2972 19.8333C20.6799 19.8353 21.0464 19.9895 21.3171 20.2626C21.5877 20.5357 21.7406 20.9055 21.7425 21.2917C21.7425 21.5801 21.6578 21.8621 21.4989 22.1019C21.3401 22.3417 21.1144 22.5286 20.8503 22.639C20.5862 22.7494 20.2956 22.7783 20.0152 22.722C19.7348 22.6657 19.4773 22.5268 19.2752 22.3229C19.073 22.1189 18.9354 21.8591 18.8796 21.5762C18.8238 21.2933 18.8525 21.0001 18.9619 20.7336C19.0712 20.4671 19.2565 20.2394 19.4942 20.0791Z" fill="url(#paint1_linear_2_49)"/>
<path fill-rule="evenodd" clip-rule="evenodd" d="M24.7542 13.6665C24.2951 13.9402 23.7597 14.0972 23.1878 14.0972C21.4849 14.0972 20.1044 12.7043 20.1044 10.9861C20.1044 9.26789 21.4849 7.875 23.1878 7.875C24.8908 7.875 26.2712 9.26789 26.2712 10.9861C26.2712 11.5631 26.1156 12.1034 25.8443 12.5665L27.7742 14.5138C28.0753 14.8175 28.0753 15.31 27.7742 15.6137C27.4732 15.9174 26.9851 15.9174 26.6841 15.6137L24.7542 13.6665ZM24.7295 10.9861C24.7295 11.8452 24.0393 12.5417 23.1878 12.5417C22.3364 12.5417 21.6461 11.8452 21.6461 10.9861C21.6461 10.127 22.3364 9.43056 23.1878 9.43056C24.0393 9.43056 24.7295 10.127 24.7295 10.9861Z" fill="url(#paint2_linear_2_49)"/>
</g>
<defs>
<filter id="filter0_d_2_49" x="0" y="0" width="35" height="35" filterUnits="userSpaceOnUse" color-interpolation-filters="sRGB">
<feFlood flood-opacity="0" result="BackgroundImageFix"/>
<feColorMatrix in="SourceAlpha" type="matrix" values="0 0 0 0 0 0 0 0 0 0 0 0 0 0 0 0 0 0 127 0" result="hardAlpha"/>
<feOffset dy="2"/>
<feGaussianBlur stdDeviation="2"/>
<feComposite in2="hardAlpha" operator="out"/>
<feColorMatrix type="matrix" values="0 0 0 0 0.23599 0 0 0 0 0.262775 0 0 0 0 0.2875 0 0 0 0.25 0"/>
<feBlend mode="normal" in2="BackgroundImageFix" result="effect1_dropShadow_2_49"/>
<feBlend mode="normal" in="SourceGraphic" in2="effect1_dropShadow_2_49" result="shape"/>
</filter>
<filter id="filter1_d_2_49" x="6" y="7" width="23" height="17.75" filterUnits="userSpaceOnUse" color-interpolation-filters="sRGB">
<feFlood flood-opacity="0" result="BackgroundImageFix"/>
<feColorMatrix in="SourceAlpha" type="matrix" values="0 0 0 0 0 0 0 0 0 0 0 0 0 0 0 0 0 0 127 0" result="hardAlpha"/>
<feOffset dy="1"/>
<feGaussianBlur stdDeviation="0.5"/>
<feComposite in2="hardAlpha" operator="out"/>
<feColorMatrix type="matrix" values="0 0 0 0 0.244097 0 0 0 0 0.522522 0 0 0 0 0.791667 0 0 0 0.25 0"/>
<feBlend mode="normal" in2="BackgroundImageFix" result="effect1_dropShadow_2_49"/>
<feBlend mode="normal" in="SourceGraphic" in2="effect1_dropShadow_2_49" result="shape"/>
</filter>
<linearGradient id="paint0_linear_2_49" x1="17.5" y1="2" x2="17.5" y2="27" gradientUnits="userSpaceOnUse">
<stop stop-color="#F5F5F5"/>
<stop offset="1" stop-color="white"/>
</linearGradient>
<linearGradient id="paint1_linear_2_49" x1="14.6941" y1="7" x2="14.6941" y2="22.75" gradientUnits="userSpaceOnUse">
<stop stop-color="#8886FF"/>
<stop offset="1" stop-color="#328FE4"/>
</linearGradient>
<linearGradient id="paint2_linear_2_49" x1="24.0522" y1="7.875" x2="24.0522" y2="15.8415" gradientUnits="userSpaceOnUse">
<stop stop-color="#8886FF"/>
<stop offset="1" stop-color="#328FE4"/>
</linearGradient>
</defs>
</svg>
