<svg width="104" height="35" viewBox="0 0 104 35" fill="none" xmlns="http://www.w3.org/2000/svg">
<g filter="url(#filter0_d_2_140)">
<rect x="4" y="2" width="27" height="27" rx="8" fill="#F0F0F0"/>
</g>
<rect x="4" y="2" width="27" height="25" rx="8" fill="url(#paint0_linear_2_140)"/>
<g filter="url(#filter1_d_2_140)">
<path fill-rule="evenodd" clip-rule="evenodd" d="M21.8153 15.3329C22.2117 15.4827 22.4766 15.9003 22.3607 16.3079L22.1111 17.1865C21.9892 17.6121 21.7339 17.9864 21.3834 18.2532C21.0329 18.5201 20.6062 18.6652 20.1671 18.6667H12.9115C12.4724 18.6652 12.0456 18.5201 11.6951 18.2532C11.3447 17.9864 11.0893 17.6121 10.9675 17.1865L9.22995 11.0614C9.22722 11.0518 9.22536 11.0418 9.22222 11.0323V11.0323V11.0323C9.21908 11.0228 9.21722 11.0128 9.21449 11.0032L8.76867 9.43135C8.65433 9.02821 8.28624 8.75 7.86721 8.75V8.75C7.63721 8.75 7.41663 8.65781 7.254 8.49372C7.09137 8.32962 7 8.10706 7 7.875C7 7.64294 7.09137 7.42038 7.254 7.25628C7.41663 7.09219 7.63721 7 7.86721 7H8.79223C9.10625 7.0024 9.41122 7.10641 9.66229 7.29674C9.91336 7.48706 10.0973 7.75364 10.187 8.05729L10.5029 9.18615C10.6237 9.61806 11.0174 9.91667 11.4659 9.91667H17.9252C18.2866 9.91667 18.5628 10.2358 18.5628 10.5972V10.5972V10.5972C18.5628 11.1519 18.1524 11.6667 17.5978 11.6667H12.5277C11.8645 11.6667 11.385 12.3004 11.5653 12.9386L12.6296 16.7052C12.6481 16.7662 12.6854 16.8196 12.7361 16.8576C12.7868 16.8957 12.8483 16.9164 12.9115 16.9167H20.1671C20.2303 16.9164 20.2917 16.8957 20.3424 16.8576C20.3931 16.8196 20.4304 16.7662 20.4489 16.7052L20.6938 15.8388C20.8253 15.3731 21.3627 15.1617 21.8153 15.3329V15.3329ZM13.9831 22.1019C14.142 21.8621 14.2267 21.5801 14.2267 21.2917C14.2248 20.9055 14.0719 20.5357 13.8013 20.2626C13.5307 19.9895 13.1641 19.8353 12.7814 19.8333C12.4955 19.8333 12.2161 19.9189 11.9784 20.0791C11.7407 20.2394 11.5555 20.4671 11.4461 20.7336C11.3367 21.0001 11.308 21.2933 11.3638 21.5762C11.4196 21.8591 11.5572 22.1189 11.7594 22.3229C11.9615 22.5268 12.219 22.6657 12.4994 22.722C12.7798 22.7783 13.0704 22.7494 13.3345 22.639C13.5986 22.5286 13.8243 22.3417 13.9831 22.1019ZM19.4942 20.0791C19.7319 19.9189 20.0113 19.8333 20.2972 19.8333C20.6799 19.8353 21.0464 19.9895 21.3171 20.2626C21.5877 20.5357 21.7406 20.9055 21.7425 21.2917C21.7425 21.5801 21.6578 21.8621 21.4989 22.1019C21.3401 22.3417 21.1144 22.5286 20.8503 22.639C20.5862 22.7494 20.2956 22.7783 20.0152 22.722C19.7348 22.6657 19.4773 22.5268 19.2752 22.3229C19.073 22.1189 18.9354 21.8591 18.8796 21.5762C18.8238 21.2933 18.8525 21.0001 18.9619 20.7336C19.0712 20.4671 19.2565 20.2394 19.4942 20.0791Z" fill="url(#paint1_linear_2_140)"/>
<path fill-rule="evenodd" clip-rule="evenodd" d="M24.7542 13.6665C24.2951 13.9402 23.7597 14.0972 23.1878 14.0972C21.4849 14.0972 20.1044 12.7043 20.1044 10.9861C20.1044 9.26789 21.4849 7.875 23.1878 7.875C24.8908 7.875 26.2712 9.26789 26.2712 10.9861C26.2712 11.5631 26.1156 12.1034 25.8443 12.5665L27.7742 14.5138C28.0753 14.8175 28.0753 15.31 27.7742 15.6137C27.4732 15.9174 26.9851 15.9174 26.6841 15.6137L24.7542 13.6665ZM24.7295 10.9861C24.7295 11.8452 24.0393 12.5417 23.1878 12.5417C22.3364 12.5417 21.6461 11.8452 21.6461 10.9861C21.6461 10.127 22.3364 9.43056 23.1878 9.43056C24.0393 9.43056 24.7295 10.127 24.7295 10.9861Z" fill="url(#paint2_linear_2_140)"/>
</g>
<path d="M44.57 5.98V13H42.86V8.79L41.29 13H39.91L38.33 8.78V13H36.62V5.98H38.64L40.61 10.84L42.56 5.98H44.57ZM48.3397 13.08C47.793 13.08 47.2997 12.9633 46.8597 12.73C46.4264 12.4967 46.083 12.1633 45.8297 11.73C45.583 11.2967 45.4597 10.79 45.4597 10.21C45.4597 9.63667 45.5864 9.13333 45.8397 8.7C46.093 8.26 46.4397 7.92333 46.8797 7.69C47.3197 7.45667 47.813 7.34 48.3597 7.34C48.9064 7.34 49.3997 7.45667 49.8397 7.69C50.2797 7.92333 50.6264 8.26 50.8797 8.7C51.133 9.13333 51.2597 9.63667 51.2597 10.21C51.2597 10.7833 51.1297 11.29 50.8697 11.73C50.6164 12.1633 50.2664 12.4967 49.8197 12.73C49.3797 12.9633 48.8864 13.08 48.3397 13.08ZM48.3397 11.6C48.6664 11.6 48.943 11.48 49.1697 11.24C49.403 11 49.5197 10.6567 49.5197 10.21C49.5197 9.76333 49.4064 9.42 49.1797 9.18C48.9597 8.94 48.6864 8.82 48.3597 8.82C48.0264 8.82 47.7497 8.94 47.5297 9.18C47.3097 9.41333 47.1997 9.75667 47.1997 10.21C47.1997 10.6567 47.3064 11 47.5197 11.24C47.7397 11.48 48.013 11.6 48.3397 11.6ZM55.5669 7.36C56.2202 7.36 56.7402 7.57333 57.1269 8C57.5202 8.42 57.7169 9 57.7169 9.74V13H56.0169V9.97C56.0169 9.59667 55.9202 9.30667 55.7269 9.1C55.5335 8.89333 55.2735 8.79 54.9469 8.79C54.6202 8.79 54.3602 8.89333 54.1669 9.1C53.9735 9.30667 53.8769 9.59667 53.8769 9.97V13H52.1669V7.42H53.8769V8.16C54.0502 7.91333 54.2835 7.72 54.5769 7.58C54.8702 7.43333 55.2002 7.36 55.5669 7.36ZM59.7652 6.84C59.4652 6.84 59.2185 6.75333 59.0252 6.58C58.8385 6.4 58.7452 6.18 58.7452 5.92C58.7452 5.65333 58.8385 5.43333 59.0252 5.26C59.2185 5.08 59.4652 4.99 59.7652 4.99C60.0585 4.99 60.2985 5.08 60.4852 5.26C60.6785 5.43333 60.7752 5.65333 60.7752 5.92C60.7752 6.18 60.6785 6.4 60.4852 6.58C60.2985 6.75333 60.0585 6.84 59.7652 6.84ZM60.6152 7.42V13H58.9052V7.42H60.6152ZM64.9644 11.55V13H64.0944C63.4744 13 62.991 12.85 62.6444 12.55C62.2977 12.2433 62.1244 11.7467 62.1244 11.06V8.84H61.4444V7.42H62.1244V6.06H63.8344V7.42H64.9544V8.84H63.8344V11.08C63.8344 11.2467 63.8744 11.3667 63.9544 11.44C64.0344 11.5133 64.1677 11.55 64.3544 11.55H64.9644ZM68.4569 13.08C67.9102 13.08 67.4169 12.9633 66.9769 12.73C66.5435 12.4967 66.2002 12.1633 65.9469 11.73C65.7002 11.2967 65.5769 10.79 65.5769 10.21C65.5769 9.63667 65.7035 9.13333 65.9569 8.7C66.2102 8.26 66.5569 7.92333 66.9969 7.69C67.4369 7.45667 67.9302 7.34 68.4769 7.34C69.0235 7.34 69.5169 7.45667 69.9569 7.69C70.3969 7.92333 70.7435 8.26 70.9969 8.7C71.2502 9.13333 71.3769 9.63667 71.3769 10.21C71.3769 10.7833 71.2469 11.29 70.9869 11.73C70.7335 12.1633 70.3835 12.4967 69.9369 12.73C69.4969 12.9633 69.0035 13.08 68.4569 13.08ZM68.4569 11.6C68.7835 11.6 69.0602 11.48 69.2869 11.24C69.5202 11 69.6369 10.6567 69.6369 10.21C69.6369 9.76333 69.5235 9.42 69.2969 9.18C69.0769 8.94 68.8035 8.82 68.4769 8.82C68.1435 8.82 67.8669 8.94 67.6469 9.18C67.4269 9.41333 67.3169 9.75667 67.3169 10.21C67.3169 10.6567 67.4235 11 67.6369 11.24C67.8569 11.48 68.1302 11.6 68.4569 11.6ZM73.9941 8.35C74.1941 8.04333 74.4441 7.80333 74.7441 7.63C75.0441 7.45 75.3774 7.36 75.7441 7.36V9.17H75.2741C74.8474 9.17 74.5274 9.26333 74.3141 9.45C74.1007 9.63 73.9941 9.95 73.9941 10.41V13H72.2841V7.42H73.9941V8.35ZM77.4214 6.84C77.1214 6.84 76.8747 6.75333 76.6814 6.58C76.4947 6.4 76.4014 6.18 76.4014 5.92C76.4014 5.65333 76.4947 5.43333 76.6814 5.26C76.8747 5.08 77.1214 4.99 77.4214 4.99C77.7147 4.99 77.9547 5.08 78.1414 5.26C78.3347 5.43333 78.4314 5.65333 78.4314 5.92C78.4314 6.18 78.3347 6.4 78.1414 6.58C77.9547 6.75333 77.7147 6.84 77.4214 6.84ZM78.2714 7.42V13H76.5614V7.42H78.2714ZM82.9106 7.36C83.564 7.36 84.084 7.57333 84.4706 8C84.864 8.42 85.0606 9 85.0606 9.74V13H83.3606V9.97C83.3606 9.59667 83.264 9.30667 83.0706 9.1C82.8773 8.89333 82.6173 8.79 82.2906 8.79C81.964 8.79 81.704 8.89333 81.5106 9.1C81.3173 9.30667 81.2206 9.59667 81.2206 9.97V13H79.5106V7.42H81.2206V8.16C81.394 7.91333 81.6273 7.72 81.9206 7.58C82.214 7.43333 82.544 7.36 82.9106 7.36ZM88.3689 7.34C88.7622 7.34 89.1056 7.42 89.3989 7.58C89.6989 7.74 89.9289 7.95 90.0889 8.21V7.42H91.7989V12.99C91.7989 13.5033 91.6956 13.9667 91.4889 14.38C91.2889 14.8 90.9789 15.1333 90.5589 15.38C90.1456 15.6267 89.6289 15.75 89.0089 15.75C88.1822 15.75 87.5122 15.5533 86.9989 15.16C86.4856 14.7733 86.1922 14.2467 86.1189 13.58H87.8089C87.8622 13.7933 87.9889 13.96 88.1889 14.08C88.3889 14.2067 88.6356 14.27 88.9289 14.27C89.2822 14.27 89.5622 14.1667 89.7689 13.96C89.9822 13.76 90.0889 13.4367 90.0889 12.99V12.2C89.9222 12.46 89.6922 12.6733 89.3989 12.84C89.1056 13 88.7622 13.08 88.3689 13.08C87.9089 13.08 87.4922 12.9633 87.1189 12.73C86.7456 12.49 86.4489 12.1533 86.2289 11.72C86.0156 11.28 85.9089 10.7733 85.9089 10.2C85.9089 9.62667 86.0156 9.12333 86.2289 8.69C86.4489 8.25667 86.7456 7.92333 87.1189 7.69C87.4922 7.45667 87.9089 7.34 88.3689 7.34ZM90.0889 10.21C90.0889 9.78333 89.9689 9.44667 89.7289 9.2C89.4956 8.95333 89.2089 8.83 88.8689 8.83C88.5289 8.83 88.2389 8.95333 87.9989 9.2C87.7656 9.44 87.6489 9.77333 87.6489 10.2C87.6489 10.6267 87.7656 10.9667 87.9989 11.22C88.2389 11.4667 88.5289 11.59 88.8689 11.59C89.2089 11.59 89.4956 11.4667 89.7289 11.22C89.9689 10.9733 90.0889 10.6367 90.0889 10.21Z" fill="#49413C"/>
<path d="M43.84 18.08V25H42.93V19.84L40.63 25H39.99L37.68 19.83V25H36.77V18.08H37.75L40.31 23.8L42.87 18.08H43.84ZM45.0433 22.24C45.0433 21.68 45.1566 21.19 45.3833 20.77C45.6099 20.3433 45.9199 20.0133 46.3133 19.78C46.7133 19.5467 47.1566 19.43 47.6433 19.43C48.1233 19.43 48.5399 19.5333 48.8933 19.74C49.2466 19.9467 49.5099 20.2067 49.6833 20.52V19.52H50.6033V25H49.6833V23.98C49.5033 24.3 49.2333 24.5667 48.8733 24.78C48.5199 24.9867 48.1066 25.09 47.6333 25.09C47.1466 25.09 46.7066 24.97 46.3133 24.73C45.9199 24.49 45.6099 24.1533 45.3833 23.72C45.1566 23.2867 45.0433 22.7933 45.0433 22.24ZM49.6833 22.25C49.6833 21.8367 49.5999 21.4767 49.4333 21.17C49.2666 20.8633 49.0399 20.63 48.7533 20.47C48.4733 20.3033 48.1633 20.22 47.8233 20.22C47.4833 20.22 47.1733 20.3 46.8933 20.46C46.6133 20.62 46.3899 20.8533 46.2233 21.16C46.0566 21.4667 45.9733 21.8267 45.9733 22.24C45.9733 22.66 46.0566 23.0267 46.2233 23.34C46.3899 23.6467 46.6133 23.8833 46.8933 24.05C47.1733 24.21 47.4833 24.29 47.8233 24.29C48.1633 24.29 48.4733 24.21 48.7533 24.05C49.0399 23.8833 49.2666 23.6467 49.4333 23.34C49.5999 23.0267 49.6833 22.6633 49.6833 22.25ZM53.0511 20.41C53.2111 20.0967 53.4378 19.8533 53.7311 19.68C54.0311 19.5067 54.3944 19.42 54.8211 19.42V20.36H54.5811C53.5611 20.36 53.0511 20.9133 53.0511 22.02V25H52.1411V19.52H53.0511V20.41ZM58.9316 25L56.7816 22.58V25H55.8716V17.6H56.7816V21.95L58.8916 19.52H60.1616L57.5816 22.25L60.1716 25H58.9316ZM66.018 22.05C66.018 22.2233 66.008 22.4067 65.988 22.6H61.608C61.6414 23.14 61.8247 23.5633 62.158 23.87C62.498 24.17 62.908 24.32 63.388 24.32C63.7814 24.32 64.108 24.23 64.368 24.05C64.6347 23.8633 64.8214 23.6167 64.928 23.31H65.908C65.7614 23.8367 65.468 24.2667 65.028 24.6C64.588 24.9267 64.0414 25.09 63.388 25.09C62.868 25.09 62.4014 24.9733 61.988 24.74C61.5814 24.5067 61.2614 24.1767 61.028 23.75C60.7947 23.3167 60.678 22.8167 60.678 22.25C60.678 21.6833 60.7914 21.1867 61.018 20.76C61.2447 20.3333 61.5614 20.0067 61.968 19.78C62.3814 19.5467 62.8547 19.43 63.388 19.43C63.908 19.43 64.368 19.5433 64.768 19.77C65.168 19.9967 65.4747 20.31 65.688 20.71C65.908 21.1033 66.018 21.55 66.018 22.05ZM65.078 21.86C65.078 21.5133 65.0014 21.2167 64.848 20.97C64.6947 20.7167 64.4847 20.5267 64.218 20.4C63.958 20.2667 63.668 20.2 63.348 20.2C62.888 20.2 62.4947 20.3467 62.168 20.64C61.848 20.9333 61.6647 21.34 61.618 21.86H65.078ZM68.3292 20.27V23.5C68.3292 23.7667 68.3859 23.9567 68.4992 24.07C68.6126 24.1767 68.8092 24.23 69.0892 24.23H69.7592V25H68.9392C68.4326 25 68.0526 24.8833 67.7992 24.65C67.5459 24.4167 67.4192 24.0333 67.4192 23.5V20.27H66.7092V19.52H67.4192V18.14H68.3292V19.52H69.7592V20.27H68.3292ZM71.7718 20.53C71.9518 20.2167 72.2185 19.9567 72.5718 19.75C72.9318 19.5367 73.3485 19.43 73.8218 19.43C74.3085 19.43 74.7485 19.5467 75.1418 19.78C75.5418 20.0133 75.8551 20.3433 76.0818 20.77C76.3085 21.19 76.4218 21.68 76.4218 22.24C76.4218 22.7933 76.3085 23.2867 76.0818 23.72C75.8551 24.1533 75.5418 24.49 75.1418 24.73C74.7485 24.97 74.3085 25.09 73.8218 25.09C73.3551 25.09 72.9418 24.9867 72.5818 24.78C72.2285 24.5667 71.9585 24.3033 71.7718 23.99V27.6H70.8618V19.52H71.7718V20.53ZM75.4918 22.24C75.4918 21.8267 75.4085 21.4667 75.2418 21.16C75.0751 20.8533 74.8485 20.62 74.5618 20.46C74.2818 20.3 73.9718 20.22 73.6318 20.22C73.2985 20.22 72.9885 20.3033 72.7018 20.47C72.4218 20.63 72.1951 20.8667 72.0218 21.18C71.8551 21.4867 71.7718 21.8433 71.7718 22.25C71.7718 22.6633 71.8551 23.0267 72.0218 23.34C72.1951 23.6467 72.4218 23.8833 72.7018 24.05C72.9885 24.21 73.2985 24.29 73.6318 24.29C73.9718 24.29 74.2818 24.21 74.5618 24.05C74.8485 23.8833 75.0751 23.6467 75.2418 23.34C75.4085 23.0267 75.4918 22.66 75.4918 22.24ZM78.5296 17.6V25H77.6196V17.6H78.5296ZM79.7405 22.24C79.7405 21.68 79.8539 21.19 80.0805 20.77C80.3072 20.3433 80.6172 20.0133 81.0105 19.78C81.4105 19.5467 81.8539 19.43 82.3405 19.43C82.8205 19.43 83.2372 19.5333 83.5905 19.74C83.9439 19.9467 84.2072 20.2067 84.3805 20.52V19.52H85.3005V25H84.3805V23.98C84.2005 24.3 83.9305 24.5667 83.5705 24.78C83.2172 24.9867 82.8039 25.09 82.3305 25.09C81.8439 25.09 81.4039 24.97 81.0105 24.73C80.6172 24.49 80.3072 24.1533 80.0805 23.72C79.8539 23.2867 79.7405 22.7933 79.7405 22.24ZM84.3805 22.25C84.3805 21.8367 84.2972 21.4767 84.1305 21.17C83.9639 20.8633 83.7372 20.63 83.4505 20.47C83.1705 20.3033 82.8605 20.22 82.5205 20.22C82.1805 20.22 81.8705 20.3 81.5905 20.46C81.3105 20.62 81.0872 20.8533 80.9205 21.16C80.7539 21.4667 80.6705 21.8267 80.6705 22.24C80.6705 22.66 80.7539 23.0267 80.9205 23.34C81.0872 23.6467 81.3105 23.8833 81.5905 24.05C81.8705 24.21 82.1805 24.29 82.5205 24.29C82.8605 24.29 83.1705 24.21 83.4505 24.05C83.7372 23.8833 83.9639 23.6467 84.1305 23.34C84.2972 23.0267 84.3805 22.6633 84.3805 22.25ZM86.4984 22.25C86.4984 21.6833 86.6117 21.19 86.8384 20.77C87.065 20.3433 87.3784 20.0133 87.7784 19.78C88.185 19.5467 88.6484 19.43 89.1684 19.43C89.8417 19.43 90.395 19.5933 90.8284 19.92C91.2684 20.2467 91.5584 20.7 91.6984 21.28H90.7184C90.625 20.9467 90.4417 20.6833 90.1684 20.49C89.9017 20.2967 89.5684 20.2 89.1684 20.2C88.6484 20.2 88.2284 20.38 87.9084 20.74C87.5884 21.0933 87.4284 21.5967 87.4284 22.25C87.4284 22.91 87.5884 23.42 87.9084 23.78C88.2284 24.14 88.6484 24.32 89.1684 24.32C89.5684 24.32 89.9017 24.2267 90.1684 24.04C90.435 23.8533 90.6184 23.5867 90.7184 23.24H91.6984C91.5517 23.8 91.2584 24.25 90.8184 24.59C90.3784 24.9233 89.8284 25.09 89.1684 25.09C88.6484 25.09 88.185 24.9733 87.7784 24.74C87.3784 24.5067 87.065 24.1767 86.8384 23.75C86.6117 23.3233 86.4984 22.8233 86.4984 22.25ZM97.9126 22.05C97.9126 22.2233 97.9026 22.4067 97.8826 22.6H93.5026C93.5359 23.14 93.7192 23.5633 94.0526 23.87C94.3926 24.17 94.8026 24.32 95.2826 24.32C95.6759 24.32 96.0026 24.23 96.2626 24.05C96.5292 23.8633 96.7159 23.6167 96.8226 23.31H97.8026C97.6559 23.8367 97.3626 24.2667 96.9226 24.6C96.4826 24.9267 95.9359 25.09 95.2826 25.09C94.7626 25.09 94.2959 24.9733 93.8826 24.74C93.4759 24.5067 93.1559 24.1767 92.9226 23.75C92.6892 23.3167 92.5726 22.8167 92.5726 22.25C92.5726 21.6833 92.6859 21.1867 92.9126 20.76C93.1392 20.3333 93.4559 20.0067 93.8626 19.78C94.2759 19.5467 94.7492 19.43 95.2826 19.43C95.8026 19.43 96.2626 19.5433 96.6626 19.77C97.0626 19.9967 97.3692 20.31 97.5826 20.71C97.8026 21.1033 97.9126 21.55 97.9126 22.05ZM96.9726 21.86C96.9726 21.5133 96.8959 21.2167 96.7426 20.97C96.5892 20.7167 96.3792 20.5267 96.1126 20.4C95.8526 20.2667 95.5626 20.2 95.2426 20.2C94.7826 20.2 94.3892 20.3467 94.0626 20.64C93.7426 20.9333 93.5592 21.34 93.5126 21.86H96.9726Z" fill="#3C4349" fill-opacity="0.5"/>
<defs>
<filter id="filter0_d_2_140" x="0" y="0" width="35" height="35" filterUnits="userSpaceOnUse" color-interpolation-filters="sRGB">
<feFlood flood-opacity="0" result="BackgroundImageFix"/>
<feColorMatrix in="SourceAlpha" type="matrix" values="0 0 0 0 0 0 0 0 0 0 0 0 0 0 0 0 0 0 127 0" result="hardAlpha"/>
<feOffset dy="2"/>
<feGaussianBlur stdDeviation="2"/>
<feComposite in2="hardAlpha" operator="out"/>
<feColorMatrix type="matrix" values="0 0 0 0 0.23599 0 0 0 0 0.262775 0 0 0 0 0.2875 0 0 0 0.25 0"/>
<feBlend mode="normal" in2="BackgroundImageFix" result="effect1_dropShadow_2_140"/>
<feBlend mode="normal" in="SourceGraphic" in2="effect1_dropShadow_2_140" result="shape"/>
</filter>
<filter id="filter1_d_2_140" x="6" y="7" width="23" height="17.75" filterUnits="userSpaceOnUse" color-interpolation-filters="sRGB">
<feFlood flood-opacity="0" result="BackgroundImageFix"/>
<feColorMatrix in="SourceAlpha" type="matrix" values="0 0 0 0 0 0 0 0 0 0 0 0 0 0 0 0 0 0 127 0" result="hardAlpha"/>
<feOffset dy="1"/>
<feGaussianBlur stdDeviation="0.5"/>
<feComposite in2="hardAlpha" operator="out"/>
<feColorMatrix type="matrix" values="0 0 0 0 0.244097 0 0 0 0 0.522522 0 0 0 0 0.791667 0 0 0 0.25 0"/>
<feBlend mode="normal" in2="BackgroundImageFix" result="effect1_dropShadow_2_140"/>
<feBlend mode="normal" in="SourceGraphic" in2="effect1_dropShadow_2_140" result="shape"/>
</filter>
<linearGradient id="paint0_linear_2_140" x1="17.5" y1="2" x2="17.5" y2="27" gradientUnits="userSpaceOnUse">
<stop stop-color="#F5F5F5"/>
<stop offset="1" stop-color="white"/>
</linearGradient>
<linearGradient id="paint1_linear_2_140" x1="14.6941" y1="7" x2="14.6941" y2="22.75" gradientUnits="userSpaceOnUse">
<stop stop-color="#8886FF"/>
<stop offset="1" stop-color="#328FE4"/>
</linearGradient>
<linearGradient id="paint2_linear_2_140" x1="24.0522" y1="7.875" x2="24.0522" y2="15.8415" gradientUnits="userSpaceOnUse">
<stop stop-color="#8886FF"/>
<stop offset="1" stop-color="#328FE4"/>
</linearGradient>
</defs>
</svg>
